<?xml version="1.0" encoding="UTF-8" standalone="no"?>
<svg
   xmlns:dc="http://purl.org/dc/elements/1.1/"
   xmlns:cc="http://creativecommons.org/ns#"
   xmlns:rdf="http://www.w3.org/1999/02/22-rdf-syntax-ns#"
   xmlns:svg="http://www.w3.org/2000/svg"
   xmlns="http://www.w3.org/2000/svg"
   xmlns:sodipodi="http://sodipodi.sourceforge.net/DTD/sodipodi-0.dtd"
   xmlns:inkscape="http://www.inkscape.org/namespaces/inkscape"
   inkscape:export-ydpi="96"
   inkscape:export-xdpi="96"
   inkscape:export-filename="C:\Users\neria\Documents\projects\dmdcore\client\src\logo.png"
   sodipodi:docname="logo.svg"
   inkscape:version="1.0 (4035a4fb49, 2020-05-01)"
   id="svg8"
   version="1.1"
   viewBox="0 0 132.29166 132.29166"
   height="500"
   width="500">
  <defs
     id="defs2" />
  <sodipodi:namedview
     inkscape:window-maximized="1"
     inkscape:window-y="-9"
     inkscape:window-x="-9"
     inkscape:window-height="1321"
     inkscape:window-width="2323"
     inkscape:guide-bbox="true"
     showguides="true"
     units="px"
     showgrid="true"
     inkscape:document-rotation="0"
     inkscape:current-layer="layer1"
     inkscape:document-units="px"
     inkscape:cy="349.39765"
     inkscape:cx="155.81605"
     inkscape:zoom="1.3670731"
     inkscape:pageshadow="2"
     inkscape:pageopacity="0.0"
     borderopacity="1.0"
     bordercolor="#666666"
     pagecolor="#ffffff"
     id="base">
    <inkscape:grid
       id="grid833"
       type="xygrid" />
    <sodipodi:guide
       id="guide864"
       orientation="0,-1"
       position="-52.916664,66.14583" />
    <sodipodi:guide
       id="guide868"
       orientation="1,0"
       position="66.14583,21.166666" />
  </sodipodi:namedview>
  <metadata
     id="metadata5">
    <rdf:RDF>
      <cc:Work
         rdf:about="">
        <dc:format>image/svg+xml</dc:format>
        <dc:type
           rdf:resource="http://purl.org/dc/dcmitype/StillImage" />
        <dc:title></dc:title>
      </cc:Work>
    </rdf:RDF>
  </metadata>
  <g
     id="layer1"
     inkscape:groupmode="layer"
     inkscape:label="Capa 1">
    <path
       transform="scale(0.26458332)"
       d="M 250 50 C 139.54305 50 50 139.54305 50 250 C 50.000008 360.45694 139.54306 450 250 450 C 360.45695 450 450 360.45695 450 250 C 450 139.54305 360.45695 49.999996 250 50 z M 250 100 C 332.84271 100 400 167.15729 400 250 C 400 332.84271 332.84271 400 250 400 C 167.15729 400 99.999996 332.84271 100 250 C 100 167.15729 167.15729 100 250 100 z "
       style="fill:#ebeb44;fill-rule:evenodd;stroke-width:14.816;stroke-linecap:round;stroke-linejoin:round;paint-order:markers stroke fill;fill-opacity:1"
       id="path963-7-4" />
    <path
       transform="scale(0.26458332)"
       d="M 150 100 C 67.157291 100 0 167.15729 0 250 C 4.1574805e-06 332.84271 67.157295 400 150 400 L 200 400 L 200 391.45312 L 200 336.60156 L 200 163.39844 L 200 108.54688 L 200 100 L 150 100 z M 150 150 L 150 350 A 100 100 0 0 1 50 250 A 100 100 0 0 1 150 150 z "
       style="fill:#16cdcd;fill-rule:evenodd;stroke-width:15;stroke-linecap:round;stroke-linejoin:round;paint-order:markers stroke fill;fill-opacity:1"
       id="path837" />
    <path
       id="path837-2"
       style="fill:#16cdcd;fill-rule:evenodd;stroke-width:3.96875;stroke-linecap:round;stroke-linejoin:round;paint-order:markers stroke fill;fill-opacity:1"
       d="m 92.604162,26.458332 c 21.918798,0 39.687488,17.768699 39.687488,39.687498 0,21.918798 -17.7687,39.6875 -39.687488,39.6875 H 79.374992 V 103.57197 89.059158 43.232502 28.719694 26.458332 Z m 0,13.229166 v 52.91666 A 26.458332,26.458332 0 0 0 119.06248,66.14583 26.458332,26.458332 0 0 0 92.604162,39.687498 Z" />
    <path
       transform="scale(0.26458332)"
       d="M 150 100 L 150 400 L 200 400 L 200 160 L 223 185.55469 L 210 200 L 210 260 L 250 215.55469 L 290 260 L 290 200 L 277 185.55469 L 300 160 L 300 400 L 350 400 L 350 100 L 300 100 L 250 155.55469 L 200 100 L 150 100 z "
       style="fill:#44ebeb;fill-rule:evenodd;stroke-width:15;stroke-linecap:round;stroke-linejoin:round;paint-order:markers stroke fill;fill-opacity:1;opacity:0.99700002"
       id="rect925" />
  </g>
</svg>
